<svg width="100" height="100" viewBox="0 0 100 100" fill="none" xmlns="http://www.w3.org/2000/svg">
<rect width="100" height="100" fill="#E5E5E5"/>
<g clip-path="url(#clip0)">
<rect width="100" height="100" fill="white"/>
<mask id="path-2-inside-1" fill="white">
<path fill-rule="evenodd" clip-rule="evenodd" d="M9.31534 0C4.17062 0 0 4.17062 0 9.31534C0 14.4601 4.17062 18.6307 9.31534 18.6307H65.7664L27.5807 85.9776C25.2627 90.0658 26.4442 95.6488 30.2197 98.4475C33.9951 101.246 38.9349 100.201 41.2529 96.1126L85.805 17.5373C86.9594 15.5013 87.2459 13.0946 86.7763 10.8457C86.8586 10.3478 86.9014 9.83657 86.9014 9.31534C86.9014 4.17062 82.7308 0 77.586 0H9.31534Z"/>
</mask>
<path fill-rule="evenodd" clip-rule="evenodd" d="M9.31534 0C4.17062 0 0 4.17062 0 9.31534C0 14.4601 4.17062 18.6307 9.31534 18.6307H65.7664L27.5807 85.9776C25.2627 90.0658 26.4442 95.6488 30.2197 98.4475C33.9951 101.246 38.9349 100.201 41.2529 96.1126L85.805 17.5373C86.9594 15.5013 87.2459 13.0946 86.7763 10.8457C86.8586 10.3478 86.9014 9.83657 86.9014 9.31534C86.9014 4.17062 82.7308 0 77.586 0H9.31534Z" fill="#EF6275"/>
<path d="M65.7664 18.6307L70.1159 21.0968L74.3492 13.6307H65.7664V18.6307ZM27.5807 85.9776L31.9302 88.4438V88.4438L27.5807 85.9776ZM30.2197 98.4475L33.1972 94.4307L33.1972 94.4307L30.2197 98.4475ZM41.2529 96.1126L45.6024 98.5787L45.6024 98.5787L41.2529 96.1126ZM85.805 17.5373L81.4555 15.0712L85.805 17.5373ZM86.7763 10.8457L81.8432 10.0304L81.6908 10.9527L81.8819 11.8678L86.7763 10.8457ZM5 9.31534C5 6.93205 6.93205 5 9.31534 5V-5C1.40919 -5 -5 1.4092 -5 9.31534H5ZM9.31534 13.6307C6.93205 13.6307 5 11.6986 5 9.31534H-5C-5 17.2215 1.40919 23.6307 9.31534 23.6307V13.6307ZM65.7664 13.6307H9.31534V23.6307H65.7664V13.6307ZM31.9302 88.4438L70.1159 21.0968L61.4169 16.1645L23.2312 83.5115L31.9302 88.4438ZM33.1972 94.4307C31.4509 93.1363 30.8581 90.3347 31.9302 88.4438L23.2312 83.5115C19.6674 89.797 21.4375 98.1613 27.2421 102.464L33.1972 94.4307ZM36.9034 93.6464C36.0665 95.1224 34.5602 95.4411 33.1972 94.4307L27.2421 102.464C33.43 107.051 41.8032 105.279 45.6024 98.5787L36.9034 93.6464ZM81.4555 15.0712L36.9034 93.6464L45.6024 98.5787L90.1545 20.0035L81.4555 15.0712ZM81.8819 11.8678C82.1292 13.052 81.9498 14.1995 81.4555 15.0712L90.1545 20.0035C91.9691 16.8031 92.3627 13.1372 91.6707 9.82361L81.8819 11.8678ZM81.9014 9.31534C81.9014 9.56234 81.8811 9.8009 81.8432 10.0304L91.7094 11.661C91.836 10.8947 91.9014 10.1108 91.9014 9.31534H81.9014ZM77.586 5C79.9693 5 81.9014 6.93204 81.9014 9.31534H91.9014C91.9014 1.40921 85.4922 -5 77.586 -5V5ZM9.31534 5H77.586V-5H9.31534V5Z" fill="#FD6378" mask="url(#path-2-inside-1)"/>
<mask id="path-4-inside-2" fill="white">
<path fill-rule="evenodd" clip-rule="evenodd" d="M72.043 100C87.4832 100 100 87.2081 100 71.4286C100 55.649 87.4832 42.8571 72.043 42.8571C56.6028 42.8571 44.086 55.649 44.086 71.4286C44.086 87.2081 56.6028 100 72.043 100ZM71.5054 86.9048C78.9286 86.9048 84.9462 80.2423 84.9462 72.0238C84.9462 63.8053 78.9286 57.1429 71.5054 57.1429C64.0822 57.1429 58.0645 63.8053 58.0645 72.0238C58.0645 80.2423 64.0822 86.9048 71.5054 86.9048Z"/>
</mask>
<path fill-rule="evenodd" clip-rule="evenodd" d="M72.043 100C87.4832 100 100 87.2081 100 71.4286C100 55.649 87.4832 42.8571 72.043 42.8571C56.6028 42.8571 44.086 55.649 44.086 71.4286C44.086 87.2081 56.6028 100 72.043 100ZM71.5054 86.9048C78.9286 86.9048 84.9462 80.2423 84.9462 72.0238C84.9462 63.8053 78.9286 57.1429 71.5054 57.1429C64.0822 57.1429 58.0645 63.8053 58.0645 72.0238C58.0645 80.2423 64.0822 86.9048 71.5054 86.9048Z" fill="#FD6378"/>
<path d="M96 71.4286C96 85.0814 85.1926 96 72.043 96V104C89.7739 104 104 89.3349 104 71.4286H96ZM72.043 46.8571C85.1926 46.8571 96 57.7757 96 71.4286H104C104 53.5223 89.7739 38.8571 72.043 38.8571V46.8571ZM48.086 71.4286C48.086 57.7757 58.8935 46.8571 72.043 46.8571V38.8571C54.3121 38.8571 40.086 53.5223 40.086 71.4286H48.086ZM72.043 96C58.8935 96 48.086 85.0814 48.086 71.4286H40.086C40.086 89.3349 54.3121 104 72.043 104V96ZM80.9462 72.0238C80.9462 78.4259 76.3461 82.9048 71.5054 82.9048V90.9048C81.511 90.9048 88.9462 82.0587 88.9462 72.0238H80.9462ZM71.5054 61.1429C76.3461 61.1429 80.9462 65.6217 80.9462 72.0238H88.9462C88.9462 61.9889 81.511 53.1429 71.5054 53.1429V61.1429ZM62.0645 72.0238C62.0645 65.6217 66.6646 61.1429 71.5054 61.1429V53.1429C61.4998 53.1429 54.0645 61.9889 54.0645 72.0238H62.0645ZM71.5054 82.9048C66.6646 82.9048 62.0645 78.4259 62.0645 72.0238H54.0645C54.0645 82.0587 61.4998 90.9048 71.5054 90.9048V82.9048Z" fill="#FD6378" mask="url(#path-4-inside-2)"/>
</g>
<defs>
<clipPath id="clip0">
<rect width="100" height="100" fill="white"/>
</clipPath>
</defs>
</svg>
