<svg width="100" height="100" viewBox="0 0 100 100" fill="none" xmlns="http://www.w3.org/2000/svg">
<rect width="100" height="100" fill="#E5E5E5"/>
<g clip-path="url(#clip0)">
<rect width="100" height="100" fill="white"/>
<mask id="path-2-inside-1" fill="white">
<path fill-rule="evenodd" clip-rule="evenodd" d="M9.31534 0C4.17062 0 0 4.17062 0 9.31534C0 14.4601 4.17062 18.6307 9.31534 18.6307H65.7664L27.5807 85.9776C25.2627 90.0658 26.4442 95.6488 30.2197 98.4475C33.9951 101.246 38.9349 100.201 41.2529 96.1126L85.805 17.5373C86.9594 15.5013 87.2459 13.0946 86.7763 10.8457C86.8586 10.3478 86.9014 9.83657 86.9014 9.31534C86.9014 4.17062 82.7308 0 77.586 0H9.31534Z"/>
</mask>
<path fill-rule="evenodd" clip-rule="evenodd" d="M9.31534 0C4.17062 0 0 4.17062 0 9.31534C0 14.4601 4.17062 18.6307 9.31534 18.6307H65.7664L27.5807 85.9776C25.2627 90.0658 26.4442 95.6488 30.2197 98.4475C33.9951 101.246 38.9349 100.201 41.2529 96.1126L85.805 17.5373C86.9594 15.5013 87.2459 13.0946 86.7763 10.8457C86.8586 10.3478 86.9014 9.83657 86.9014 9.31534C86.9014 4.17062 82.7308 0 77.586 0H9.31534Z" fill="#EF6275"/>
<path d="M65.7664 18.6307L68.3761 20.1104L70.9161 15.6307H65.7664V18.6307ZM27.5807 85.9776L30.1904 87.4573L27.5807 85.9776ZM30.2197 98.4475L32.0062 96.0374L32.0062 96.0374L30.2197 98.4475ZM41.2529 96.1126L43.8626 97.5923H43.8626L41.2529 96.1126ZM85.805 17.5373L83.1953 16.0576L85.805 17.5373ZM86.7763 10.8457L83.8164 10.3565L83.725 10.9099L83.8396 11.459L86.7763 10.8457ZM3 9.31534C3 5.82748 5.82748 3 9.31534 3V-3C2.51376 -3 -3 2.51377 -3 9.31534H3ZM9.31534 15.6307C5.82747 15.6307 3 12.8032 3 9.31534H-3C-3 16.1169 2.51376 21.6307 9.31534 21.6307V15.6307ZM65.7664 15.6307H9.31534V21.6307H65.7664V15.6307ZM30.1904 87.4573L68.3761 20.1104L63.1567 17.151L24.971 84.4979L30.1904 87.4573ZM32.0062 96.0374C29.4482 94.1413 28.6199 90.2272 30.1904 87.4573L24.971 84.4979C21.9055 89.9045 23.4402 97.1563 28.4331 100.858L32.0062 96.0374ZM38.6432 94.6329C37.2139 97.1537 34.3342 97.7631 32.0062 96.0374L28.4331 100.858C33.656 104.729 40.6559 103.248 43.8626 97.5923L38.6432 94.6329ZM83.1953 16.0576L38.6432 94.6329L43.8626 97.5923L88.4147 19.017L83.1953 16.0576ZM83.8396 11.459C84.1759 13.069 83.9536 14.7202 83.1953 16.0576L88.4147 19.017C89.9652 16.2824 90.316 13.1202 89.7129 10.2324L83.8396 11.459ZM83.9014 9.31534C83.9014 9.67203 83.8721 10.0197 83.8164 10.3565L89.7361 11.3349C89.845 10.6759 89.9014 10.0011 89.9014 9.31534H83.9014ZM77.586 3C81.0739 3 83.9014 5.82748 83.9014 9.31534H89.9014C89.9014 2.51377 84.3876 -3 77.586 -3V3ZM9.31534 3H77.586V-3H9.31534V3Z" fill="#FD6378" mask="url(#path-2-inside-1)"/>
<mask id="path-4-inside-2" fill="white">
<path fill-rule="evenodd" clip-rule="evenodd" d="M72.043 100C87.4832 100 100 87.2081 100 71.4286C100 55.649 87.4832 42.8571 72.043 42.8571C56.6028 42.8571 44.086 55.649 44.086 71.4286C44.086 87.2081 56.6028 100 72.043 100ZM71.5054 86.9048C78.9286 86.9048 84.9462 80.2423 84.9462 72.0238C84.9462 63.8053 78.9286 57.1429 71.5054 57.1429C64.0822 57.1429 58.0645 63.8053 58.0645 72.0238C58.0645 80.2423 64.0822 86.9048 71.5054 86.9048Z"/>
</mask>
<path fill-rule="evenodd" clip-rule="evenodd" d="M72.043 100C87.4832 100 100 87.2081 100 71.4286C100 55.649 87.4832 42.8571 72.043 42.8571C56.6028 42.8571 44.086 55.649 44.086 71.4286C44.086 87.2081 56.6028 100 72.043 100ZM71.5054 86.9048C78.9286 86.9048 84.9462 80.2423 84.9462 72.0238C84.9462 63.8053 78.9286 57.1429 71.5054 57.1429C64.0822 57.1429 58.0645 63.8053 58.0645 72.0238C58.0645 80.2423 64.0822 86.9048 71.5054 86.9048Z" fill="#FD6378"/>
<path d="M96 71.4286C96 85.0814 85.1926 96 72.043 96V104C89.7739 104 104 89.3349 104 71.4286H96ZM72.043 46.8571C85.1926 46.8571 96 57.7757 96 71.4286H104C104 53.5223 89.7739 38.8571 72.043 38.8571V46.8571ZM48.086 71.4286C48.086 57.7757 58.8935 46.8571 72.043 46.8571V38.8571C54.3121 38.8571 40.086 53.5223 40.086 71.4286H48.086ZM72.043 96C58.8935 96 48.086 85.0814 48.086 71.4286H40.086C40.086 89.3349 54.3121 104 72.043 104V96ZM80.9462 72.0238C80.9462 78.4259 76.3461 82.9048 71.5054 82.9048V90.9048C81.511 90.9048 88.9462 82.0587 88.9462 72.0238H80.9462ZM71.5054 61.1429C76.3461 61.1429 80.9462 65.6217 80.9462 72.0238H88.9462C88.9462 61.9889 81.511 53.1429 71.5054 53.1429V61.1429ZM62.0645 72.0238C62.0645 65.6217 66.6646 61.1429 71.5054 61.1429V53.1429C61.4998 53.1429 54.0645 61.9889 54.0645 72.0238H62.0645ZM71.5054 82.9048C66.6646 82.9048 62.0645 78.4259 62.0645 72.0238H54.0645C54.0645 82.0587 61.4998 90.9048 71.5054 90.9048V82.9048Z" fill="#FD6378" mask="url(#path-4-inside-2)"/>
<circle cx="18" cy="47" r="3" fill="#E4DFDF"/>
<circle cx="15" cy="81" r="3" fill="#E4DFDF"/>
<circle cx="47" cy="30" r="3" fill="#E4DFDF"/>
</g>
<defs>
<clipPath id="clip0">
<rect width="100" height="100" fill="white"/>
</clipPath>
</defs>
</svg>
