<svg width="100" height="100" viewBox="0 0 100 100" fill="none" xmlns="http://www.w3.org/2000/svg">
<rect width="100" height="100" fill="#E5E5E5"/>
<g clip-path="url(#clip0)">
<rect width="100" height="100" fill="white"/>
<mask id="path-2-inside-1" fill="white">
<path fill-rule="evenodd" clip-rule="evenodd" d="M0 9.31534C0 4.17062 4.17062 0 9.31534 0H77.586C82.7308 0 86.9014 4.17062 86.9014 9.31534C86.9014 9.83657 86.8586 10.3478 86.7763 10.8457C87.2459 13.0946 86.9594 15.5013 85.805 17.5373L71.4451 42.8636C71.6439 42.8593 71.8432 42.8571 72.043 42.8571C87.4832 42.8571 100 55.649 100 71.4286C100 87.2081 87.4832 100 72.043 100C61.4519 100 52.2363 93.9812 47.4925 85.1079L41.2529 96.1126C38.9349 100.201 33.9951 101.246 30.2197 98.4475C26.4442 95.6488 25.2627 90.0658 27.5807 85.9776L65.7664 18.6307H9.31534C4.17062 18.6307 0 14.4601 0 9.31534ZM84.9462 72.0238C84.9462 80.2423 78.9286 86.9048 71.5054 86.9048C64.0822 86.9048 58.0645 80.2423 58.0645 72.0238C58.0645 63.8053 64.0822 57.1429 71.5054 57.1429C78.9286 57.1429 84.9462 63.8053 84.9462 72.0238Z"/>
</mask>
<path fill-rule="evenodd" clip-rule="evenodd" d="M0 9.31534C0 4.17062 4.17062 0 9.31534 0H77.586C82.7308 0 86.9014 4.17062 86.9014 9.31534C86.9014 9.83657 86.8586 10.3478 86.7763 10.8457C87.2459 13.0946 86.9594 15.5013 85.805 17.5373L71.4451 42.8636C71.6439 42.8593 71.8432 42.8571 72.043 42.8571C87.4832 42.8571 100 55.649 100 71.4286C100 87.2081 87.4832 100 72.043 100C61.4519 100 52.2363 93.9812 47.4925 85.1079L41.2529 96.1126C38.9349 100.201 33.9951 101.246 30.2197 98.4475C26.4442 95.6488 25.2627 90.0658 27.5807 85.9776L65.7664 18.6307H9.31534C4.17062 18.6307 0 14.4601 0 9.31534ZM84.9462 72.0238C84.9462 80.2423 78.9286 86.9048 71.5054 86.9048C64.0822 86.9048 58.0645 80.2423 58.0645 72.0238C58.0645 63.8053 64.0822 57.1429 71.5054 57.1429C78.9286 57.1429 84.9462 63.8053 84.9462 72.0238Z" fill="#198A83"/>
<path d="M86.7763 10.8457L82.8298 10.1934L82.7079 10.9313L82.8607 11.6634L86.7763 10.8457ZM85.805 17.5373L82.3254 15.5644L82.3254 15.5644L85.805 17.5373ZM71.4451 42.8636L67.9655 40.8906L64.4938 47.0136L71.5309 46.8626L71.4451 42.8636ZM47.4925 85.1079L51.0201 83.222L47.5955 76.8165L44.0129 83.135L47.4925 85.1079ZM41.2529 96.1126L44.7325 98.0855L44.7325 98.0855L41.2529 96.1126ZM30.2197 98.4475L32.6017 95.2341L32.6017 95.2341L30.2197 98.4475ZM27.5807 85.9776L31.0603 87.9506L31.0603 87.9506L27.5807 85.9776ZM65.7664 18.6307L69.246 20.6036L72.6327 14.6307H65.7664V18.6307ZM9.31534 -4C1.96148 -4 -4 1.96149 -4 9.31534H4C4 6.37976 6.37976 4 9.31534 4V-4ZM77.586 -4H9.31534V4H77.586V-4ZM90.9014 9.31534C90.9014 1.96149 84.9399 -4 77.586 -4V4C80.5216 4 82.9014 6.37976 82.9014 9.31534H90.9014ZM90.7227 11.4979C90.8405 10.7853 90.9014 10.056 90.9014 9.31534H82.9014C82.9014 9.61719 82.8766 9.91028 82.8298 10.1934L90.7227 11.4979ZM89.2846 19.5103C90.9672 16.5428 91.3393 13.1287 90.6918 10.028L82.8607 11.6634C83.1525 13.0605 82.9517 14.4599 82.3254 15.5644L89.2846 19.5103ZM74.9247 44.8365L89.2846 19.5103L82.3254 15.5644L67.9655 40.8906L74.9247 44.8365ZM72.043 38.8571C71.8146 38.8571 71.5867 38.8596 71.3593 38.8645L71.5309 46.8626C71.701 46.859 71.8718 46.8571 72.043 46.8571V38.8571ZM104 71.4286C104 53.5223 89.7739 38.8571 72.043 38.8571V46.8571C85.1926 46.8571 96 57.7757 96 71.4286H104ZM72.043 104C89.7739 104 104 89.3349 104 71.4286H96C96 85.0814 85.1926 96 72.043 96V104ZM43.965 86.9938C49.3614 97.0878 59.8867 104 72.043 104V96C63.0172 96 55.1113 90.8747 51.0201 83.222L43.965 86.9938ZM44.7325 98.0855L50.9721 87.0808L44.0129 83.135L37.7733 94.1397L44.7325 98.0855ZM27.8376 101.661C33.543 105.89 41.2295 104.264 44.7325 98.0855L37.7733 94.1397C36.6402 96.1381 34.4472 96.6021 32.6017 95.2341L27.8376 101.661ZM24.1011 84.0047C20.7864 89.8508 22.4388 97.6588 27.8376 101.661L32.6017 95.2341C30.4496 93.6388 29.739 90.2809 31.0603 87.9506L24.1011 84.0047ZM62.2868 16.6578L24.1011 84.0047L31.0603 87.9506L69.246 20.6036L62.2868 16.6578ZM9.31534 22.6307H65.7664V14.6307H9.31534V22.6307ZM-4 9.31534C-4 16.6692 1.96147 22.6307 9.31534 22.6307V14.6307C6.37976 14.6307 4 12.2509 4 9.31534H-4ZM71.5054 90.9048C81.511 90.9048 88.9462 82.0587 88.9462 72.0238H80.9462C80.9462 78.4259 76.3461 82.9048 71.5054 82.9048V90.9048ZM54.0645 72.0238C54.0645 82.0587 61.4998 90.9048 71.5054 90.9048V82.9048C66.6646 82.9048 62.0645 78.4259 62.0645 72.0238H54.0645ZM71.5054 53.1429C61.4998 53.1429 54.0645 61.9889 54.0645 72.0238H62.0645C62.0645 65.6217 66.6646 61.1429 71.5054 61.1429V53.1429ZM88.9462 72.0238C88.9462 61.9889 81.511 53.1429 71.5054 53.1429V61.1429C76.3461 61.1429 80.9462 65.6217 80.9462 72.0238H88.9462Z" fill="#28E7DB" mask="url(#path-2-inside-1)"/>
</g>
<defs>
<clipPath id="clip0">
<rect width="100" height="100" fill="white"/>
</clipPath>
</defs>
</svg>
