<svg width="153" height="118" viewBox="0 0 153 118" fill="none" xmlns="http://www.w3.org/2000/svg">
<rect width="153" height="118" fill="#E5E5E5"/>
<rect width="153" height="118" fill="white"/>
<mask id="path-2-inside-1" fill="white">
<path fill-rule="evenodd" clip-rule="evenodd" d="M37.5 17C33.3579 17 30 20.3579 30 24.5C30 28.6421 33.3579 32 37.5 32H90.5435L55.6065 85.8892C53.3532 89.3649 54.3441 94.0091 57.8197 96.2624C61.2954 98.5156 65.9396 97.5247 68.1929 94.0491L108.775 31.4531C109.865 29.7706 110.196 27.8143 109.852 25.9879C109.949 25.507 110 25.0094 110 24.5C110 20.3579 106.642 17 102.5 17H37.5Z"/>
</mask>
<path fill-rule="evenodd" clip-rule="evenodd" d="M37.5 17C33.3579 17 30 20.3579 30 24.5C30 28.6421 33.3579 32 37.5 32H90.5435L55.6065 85.8892C53.3532 89.3649 54.3441 94.0091 57.8197 96.2624C61.2954 98.5156 65.9396 97.5247 68.1929 94.0491L108.775 31.4531C109.865 29.7706 110.196 27.8143 109.852 25.9879C109.949 25.507 110 25.0094 110 24.5C110 20.3579 106.642 17 102.5 17H37.5Z" fill="#25B5AC"/>
<path d="M90.5435 32L94.739 34.72L99.7439 27H90.5435V32ZM55.6065 85.8892L51.411 83.1693L51.411 83.1693L55.6065 85.8892ZM68.1929 94.0491L72.3883 96.7691L72.3883 96.7691L68.1929 94.0491ZM108.775 31.4531L112.97 34.173L112.97 34.173L108.775 31.4531ZM109.852 25.9879L104.951 25.0013L104.759 25.9556L104.939 26.9121L109.852 25.9879ZM35 24.5C35 23.1193 36.1193 22 37.5 22V12C30.5964 12 25 17.5964 25 24.5H35ZM37.5 27C36.1193 27 35 25.8807 35 24.5H25C25 31.4036 30.5964 37 37.5 37V27ZM90.5435 27H37.5V37H90.5435V27ZM59.802 88.6092L94.739 34.72L86.3481 29.28L51.411 83.1693L59.802 88.6092ZM60.5397 92.0669C59.3812 91.3158 59.0509 89.7677 59.802 88.6092L51.411 83.1693C47.6556 88.962 49.3071 96.7023 55.0998 100.458L60.5397 92.0669ZM63.9974 91.3291C63.2463 92.4877 61.6982 92.818 60.5397 92.0669L55.0998 100.458C60.8925 104.213 68.6328 102.562 72.3883 96.7691L63.9974 91.3291ZM104.579 28.7331L63.9974 91.3291L72.3883 96.7691L112.97 34.173L104.579 28.7331ZM104.939 26.9121C105.054 27.5271 104.944 28.1704 104.579 28.7331L112.97 34.173C114.787 31.3707 115.338 28.1014 114.766 25.0637L104.939 26.9121ZM105 24.5C105 24.6763 104.982 24.8434 104.951 25.0013L114.754 26.9745C114.916 26.1706 115 25.3426 115 24.5H105ZM102.5 22C103.881 22 105 23.1193 105 24.5H115C115 17.5964 109.404 12 102.5 12V22ZM37.5 22H102.5V12H37.5V22Z" fill="#27D6CB" mask="url(#path-2-inside-1)"/>
<mask id="path-4-inside-2" fill="white">
<path fill-rule="evenodd" clip-rule="evenodd" d="M97 101C111.359 101 123 90.2548 123 77C123 63.7452 111.359 53 97 53C82.6406 53 71 63.7452 71 77C71 90.2548 82.6406 101 97 101ZM96.5 90C103.404 90 109 84.4036 109 77.5C109 70.5964 103.404 65 96.5 65C89.5964 65 84 70.5964 84 77.5C84 84.4036 89.5964 90 96.5 90Z"/>
</mask>
<path fill-rule="evenodd" clip-rule="evenodd" d="M97 101C111.359 101 123 90.2548 123 77C123 63.7452 111.359 53 97 53C82.6406 53 71 63.7452 71 77C71 90.2548 82.6406 101 97 101ZM96.5 90C103.404 90 109 84.4036 109 77.5C109 70.5964 103.404 65 96.5 65C89.5964 65 84 70.5964 84 77.5C84 84.4036 89.5964 90 96.5 90Z" fill="#27D6CB"/>
<path d="M119 77C119 87.7503 109.458 97 97 97V105C113.261 105 127 92.7594 127 77H119ZM97 57C109.458 57 119 66.2497 119 77H127C127 61.2406 113.261 49 97 49V57ZM75 77C75 66.2497 84.5423 57 97 57V49C80.7389 49 67 61.2406 67 77H75ZM97 97C84.5423 97 75 87.7503 75 77H67C67 92.7594 80.7389 105 97 105V97ZM105 77.5C105 82.1944 101.194 86 96.5 86V94C105.613 94 113 86.6127 113 77.5H105ZM96.5 69C101.194 69 105 72.8056 105 77.5H113C113 68.3873 105.613 61 96.5 61V69ZM88 77.5C88 72.8056 91.8056 69 96.5 69V61C87.3873 61 80 68.3873 80 77.5H88ZM96.5 86C91.8056 86 88 82.1944 88 77.5H80C80 86.6127 87.3873 94 96.5 94V86Z" fill="#25B5AC" mask="url(#path-4-inside-2)"/>
</svg>
