<?xml version="1.0" encoding="utf-8"?>
<!-- Generator: Adobe Illustrator 21.1.0, SVG Export Plug-In . SVG Version: 6.00 Build 0)  -->
<svg version="1.1" id="Layer_1" xmlns="http://www.w3.org/2000/svg" xmlns:xlink="http://www.w3.org/1999/xlink" x="0px" y="0px"
	 viewBox="0 0 240 78" style="enable-background:new 0 0 240 78;" xml:space="preserve">
<style type="text/css">
	.st0{fill:#FFFFFF;}
	.st1{fill:#39B54A;}
</style>
<g>
	<g>
		<path class="st0" d="M17,66.3h-1.9c-9,0-15.2-5.1-15.2-12c0-6.7,4.9-11.9,18.8-11.9h3.3V42c0-5.3-2.5-7-8.1-7
			c-6.8,0-10.6,2.6-12,4.4H1.6v-3c0-4.2,3.8-9.3,13.7-9.3c8.4,0,16,3.9,16,17v8.7C31.4,60.8,25.5,66.3,17,66.3z M22.2,49.2h-3.4
			c-7.2,0-9.2,1.7-9.2,4.8c0,2.9,2.4,4.7,6.5,4.7c4.1,0,6-2,6-5.8V49.2z"/>
		<path class="st0" d="M58.8,37c-1.4-0.6-3-1.1-5.5-1.1c-4.2,0-6.5,2.3-6.5,8.1v21.8h-2.6c-4.2,0-6.9-2.1-6.9-6V42.3
			c0-7.6,4-14.8,14-14.8c5.8,0,7.9,3.3,7.9,6.2V37H58.8z"/>
		<path class="st0" d="M80,26.9c11.4,0,17.9,9.1,17.9,19.2c0,11.4-6.5,20.4-18.7,20.4c-11.4,0-17.9-9.1-17.9-19.1
			C61.3,36.1,67.8,26.9,80,26.9z M79.2,35.4c-5.4,0-8.1,4.5-8.1,10.7c0,7.5,2.7,12,9,12c5.5,0,8.1-4.5,8.1-10.7
			C88.2,39.9,85.4,35.4,79.2,35.4z"/>
		<path class="st0" d="M113.7,21.4V44c3.6-4.8,7.2-9.6,11.6-13.8c2.2-2.1,4.5-2.5,7.5-2.5h5.4v0.4c-2.7,2.2-11.4,12.2-15.4,17.2
			c3,3.7,6,7.6,9.3,11c3.4,3.4,5,4.1,7.3,4.9c-1,3-2.5,4.6-6.4,4.6c-2.1,0-4.6-1-6.2-2.6c-4.8-5-9-10.6-13.2-16.2v18.5l-3,0.1
			c-4.3,0.1-6.5-2.2-6.5-6.7V15.2h3C111.8,15.2,113.7,17.7,113.7,21.4z"/>
		<path class="st0" d="M180.2,78c-3.5,0-6.6-2.3-6.6-5.8v-1.8L179,70c3.4-0.2,4.6-1.6,6.7-7c-5-7.5-12.1-26.3-13.4-35.3h5
			c2.6,0,5,1.8,5.5,4.4c1.3,7.3,4.1,15.2,7.6,21.8c3.1-7.1,6.5-18.5,7.4-26.3h4.1c3,0,4.4,1.3,4.4,4.4c0,4-6.6,21.3-8.3,25.4
			C190.8,74.1,187,78,180.2,78z"/>
		<path class="st0" d="M225.7,66.3h-1.9c-9,0-15.2-5.1-15.2-12c0-6.7,4.9-11.9,18.8-11.9h3.3V42c0-5.3-2.5-7-8.1-7
			c-6.8,0-10.6,2.6-12,4.4h-0.4v-3c0-4.2,3.8-9.3,13.7-9.3c8.4,0,16,3.9,16,17v8.7C240,60.8,234.1,66.3,225.7,66.3z M230.8,49.2
			h-3.4c-7.2,0-9.2,1.7-9.2,4.8c0,2.9,2.4,4.7,6.5,4.7c4.1,0,6-2,6-5.8V49.2z"/>
	</g>
	<g>
		<path class="st1" d="M142.5,45.4c7,5.1,14.7,9.7,11.9,20.9C144,59.7,140.5,53.5,142.5,45.4z"/>
		<path class="st1" d="M144.3,32.8c8.6,4.7,10.8,7.6,10.7,14.1c-0.1,2.7-0.5,3.7-3.2,2C145.9,45.3,143.4,40.1,144.3,32.8z"/>
		<path class="st1" d="M145.5,20.3c8.5,4.4,10.1,6.9,9,14.8C147.4,32.6,144.8,28.3,145.5,20.3z"/>
		<path class="st1" d="M154.6,22.2c-6.9-3.3-8.9-6.8-7.8-13.6C152,11.5,156.2,14.9,154.6,22.2z"/>
		<path class="st1" d="M156.1,11.4c-2.5,0.1-3.1-2-3-4.1c0.1-2.5,1.1-4.7,3-7.3c1.7,2.6,2.7,4.7,2.9,7.2
			C159.1,9.3,158.6,11.3,156.1,11.4z"/>
		<path class="st1" d="M157.7,22.5c-0.7-7.9,0.8-10.2,8.3-13.7C166.4,15.2,163.9,19.6,157.7,22.5z"/>
		<path class="st1" d="M160.8,33.9c-0.8,0.5-2,1.2-2.8,1c-1.2-0.3-0.7-1.8-0.7-2.7c-0.4-6.7,4.5-9.3,9.9-12.7
			C167.3,26,165.8,30.8,160.8,33.9z"/>
		<path class="st1" d="M157.6,49.7c-2.2-9,3.3-13.3,10.5-17.3C168.3,42.4,165.5,47,157.6,49.7z"/>
		<path class="st1" d="M157.9,66.6c-1.6-10.4,1.2-14.9,12.3-21C171.6,55.7,165.4,61.2,157.9,66.6z"/>
	</g>
</g>
</svg>
