<?xml version="1.0" encoding="utf-8"?>
<!-- Generator: Adobe Illustrator 19.1.0, SVG Export Plug-In . SVG Version: 6.00 Build 0)  -->
<!DOCTYPE svg PUBLIC "-//W3C//DTD SVG 1.1//EN" "http://www.w3.org/Graphics/SVG/1.1/DTD/svg11.dtd">
<svg version="1.1" id="Layer_1" xmlns="http://www.w3.org/2000/svg" xmlns:xlink="http://www.w3.org/1999/xlink" x="0px" y="0px"
	 width="760px" height="454px" viewBox="0 0 760 454" enable-background="new 0 0 760 454" xml:space="preserve">
<g>
	<path fill="#C7D7E2" stroke="#83A6BF" stroke-width="4" stroke-linejoin="round" d="M101,52h437c4.41797,0,8,3.582,8,8v320H93V60
		C93,55.582,96.582,52,101,52z"/>
	<path fill="#C7D7E2" stroke="#83A6BF" stroke-width="4" stroke-linejoin="round" d="M525.14301,392.08099
		c-63.53201,0-205.71402-0.06299-205.71402-0.06299S177.246,392.08099,113.714,392.08099C50.183,392.08099,52,380.125,52,380.125
		c0-0.24799,0-0.651,0-1.28699c0-2.65402,2.571-2.823,2.571-2.823h264.85797h264.85703c0,0,2.57098,0.16898,2.57098,2.823
		c0,0.63599,0,1.039,0,1.28699C586.85699,380.125,588.67401,392.08099,525.14301,392.08099z"/>
	<g>
		<rect x="115" y="74" fill="#FFFFFF" width="409" height="281"/>
		<rect x="115" y="73" fill="#DCE9F1" enable-background="new    " width="409" height="18"/>
		<rect x="115" y="178" fill="#DCE9F1" enable-background="new    " width="409" height="18"/>
		<rect x="115" y="337" fill="#DCE9F1" enable-background="new    " width="409" height="18"/>
		<path fill="#ACC7D5" d="M122.001,350.05957v-8.11801c0-0.84302,0.695-1.18201,1.558-0.76102l6.79299,4.05801
			c0.85602,0.422,0.85602,1.10599,0,1.52701l-6.79299,4.05499C122.703,351.24155,122.001,350.89655,122.001,350.05957z"/>
		<rect x="115" y="91" opacity="0.3" fill="#F1F6F9" enable-background="new    " width="409" height="87"/>
		<rect x="242" y="269" fill="#F6F9FB" enable-background="new    " width="260" height="57"/>
		<rect x="242" y="204" fill="#F6F9FB" width="260" height="54"/>
		<rect x="132" y="204" fill="#F6F9FB" enable-background="new    " width="100" height="97"/>
		<circle fill="#DCE9F1" cx="320" cy="135" r="24"/>
		
			<rect x="115" y="74" fill="#FFFFFF" fill-opacity="0" stroke="#ABC3D2" stroke-width="2" stroke-linejoin="round" width="409" height="281"/>
	</g>
</g>
<g>
	<path fill="#39688A" fill-opacity="0.06" enable-background="new    " d="M454.57101,393.853l-25.71402-4.147v-15.44098H398
		V140.073c0,0-2.92099-19.158,18-19.158c49.09799,0,167.14301,0,167.14301,0s0,7.965,0,23.01899
		C583.14301,223.052,454.57101,393.853,454.57101,393.853z"/>
	<path fill="#C7D7E2" stroke="#83A6BF" stroke-width="4" stroke-linejoin="round" d="M454,98h185c4.41827,0,8,3.58172,8,8v282
		c0,4.41827-3.58173,8-8,8H454c-4.41827,0-8-3.58173-8-8V106C446,101.58172,449.58173,98,454,98z"/>
	<g>
		<rect x="457" y="124" fill="#FFFFFF" width="179" height="247"/>
		<rect x="457" y="124" fill="#DCE9F1" enable-background="new    " width="179" height="15"/>
		<rect x="457" y="206" fill="#DCE9F1" enable-background="new    " width="179" height="15"/>
		<rect x="457" y="139" opacity="0.3" fill="#F1F6F9" enable-background="new    " width="179" height="67"/>
		<path fill="#F6F9FB" enable-background="new    " d="M463,351v-34h163v34H463z M463,272h163v37H463V272z M463,227h163v37H463V227z
			"/>
		<circle fill="#DCE9F1" cx="547" cy="173" r="19"/>
		<rect x="457" y="353" fill="#DCE9F1" enable-background="new    " width="179" height="18"/>
		<path fill="#ACC7D5" d="M464.00101,366.05957v-8.11902c0-0.84201,0.69501-1.181,1.55899-0.76001l6.79199,4.05801
			c0.85602,0.422,0.85602,1.10599,0,1.52701l-6.79199,4.05499C464.703,367.24155,464.00101,366.89655,464.00101,366.05957z"/>
		
			<rect x="457" y="124" fill="#FFFFFF" fill-opacity="0" stroke="#ABC3D2" stroke-width="2" stroke-linejoin="round" width="179" height="247"/>
	</g>
</g>
<g>
	<path fill="#39688A" fill-opacity="0.06" d="M606.88501,235.013h28.37598c4.27399,0,7.73901,3.46201,7.73901,7.73399v145.65199
		c0,4.272-3.46503,7.73401-7.73901,7.73401L614.62402,400c-4.27405,0-17.87903-2.91-20.63702-6.44501V247.903
		C593.987,240.60201,596.91498,235.013,606.88501,235.013z"/>
	<path fill="#C7D7E2" stroke="#83A6BF" stroke-width="4" stroke-linejoin="round" d="M617,216h85c3.31372,0,6,2.68629,6,6v174
		c0,3.31372-2.68628,6-6,6h-85c-3.31372,0-6-2.68628-6-6V222C611,218.68629,613.68628,216,617,216z"/>
	<g>
		<rect x="621" y="237" fill="#FFFFFF" width="77" height="145"/>
		<rect x="621" y="237" fill="#DCE9F1" enable-background="new    " width="77" height="15"/>
		<path fill="#F6F9FB" enable-background="new    " d="M626,356v-48h67v48H626z M626,255h67v48h-67V255z"/>
		<rect x="621" y="364" fill="#DCE9F1" enable-background="new    " width="77" height="18"/>
		<path fill="#ACC7D5" d="M627.00098,377.05957v-8.11801c0-0.84302,0.69501-1.18201,1.55804-0.76102l6.79297,4.05801
			c0.85602,0.422,0.85602,1.10599,0,1.52701l-6.79297,4.05499C627.703,378.24155,627.00098,377.89655,627.00098,377.05957z"/>
		<rect x="621" y="237" fill="none" stroke="#ABC3D2" stroke-width="2" stroke-linejoin="round" width="77" height="145"/>
	</g>
</g>
</svg>
