<?xml version="1.0" encoding="iso-8859-1"?>
<!-- Generator: Adobe Illustrator 19.0.0, SVG Export Plug-In . SVG Version: 6.00 Build 0)  -->
<svg version="1.1" id="Layer_1" xmlns="http://www.w3.org/2000/svg" xmlns:xlink="http://www.w3.org/1999/xlink" x="0px" y="0px"
	 viewBox="0 0 355.127 355.127" style="enable-background:new 0 0 355.127 355.127;" xml:space="preserve">
<g>
	<g>
		<path d="M324.161,78.914h-14.105c-1.72,0-2.838,1.118-2.838,2.838s1.118,2.838,2.838,2.838h11.267v166.337h-58.657
			c-0.086-0.516-0.344-1.032-0.774-1.376l-23.652-23.652c-1.118-1.118-2.838-1.118-3.956,0c-1.118,1.118-1.118,2.838,0,3.956
			l21.158,21.158H39.477V84.676h80.933c0.086,0.602,0.344,1.204,0.86,1.72l34.919,34.919c0.602,0.602,1.118,0.86,1.978,0.86
			s1.376-0.258,1.978-0.86c1.118-1.118,1.118-2.838,0-3.956l-32.683-32.683H276.34c1.72,0,2.838-1.118,2.838-2.838
			c0-1.72-1.118-2.838-2.838-2.838H36.725c-1.72,0-2.838,1.118-2.838,2.838V253.68c0,1.72,1.118,2.838,2.838,2.838h287.522
			c1.72,0,2.838-1.118,2.838-2.838V81.752C326.999,80.031,325.881,78.914,324.161,78.914z"/>
	</g>
</g>
<g>
	<g>
		<path d="M352.371,264.947h-11.267V81.15c-0.001-12.987-13.245-22.018-25.372-22.018H45.154c-12.127,0-25.372,9.03-25.372,22.018
			v183.797H2.838c-1.72,0-2.838,1.118-2.838,2.838v1.118c0,3.784,1.118,7.569,2.924,11.095c0.086,0.43,0.344,0.86,0.602,1.118
			c5.075,8.429,14.707,14.879,24.598,14.879h304.465c14.105,0,22.534-13.847,22.534-27.092v-1.118
			C355.209,266.064,354.005,264.947,352.371,264.947z M25.372,81.15c0-9.289,10.407-16.341,19.696-16.341h270.578
			c9.289,0,19.696,7.052,19.696,16.341v183.797H25.372V81.15z M348.587,276.214h-4.73c-1.72,0-2.838,1.118-2.838,2.838
			c0,1.72,1.118,2.838,2.838,2.838h2.408c-2.753,4.903-7.398,8.429-13.676,8.429H28.124c-6.193,0-12.643-3.526-17.029-8.429h310.227
			c1.72,0,2.838-1.118,2.838-2.838c0-1.72-1.118-2.838-2.838-2.838H7.311c-0.86-1.806-1.462-3.698-1.72-5.677h343.942
			C349.447,272.43,349.103,274.322,348.587,276.214z"/>
	</g>
</g>
<g>
	<g>
		<path d="M182.335,70.399c-1.118-1.118-2.838-1.118-3.956,0c-0.602,0.602-0.86,1.118-0.86,1.978s0.258,1.376,0.86,1.978
			c0.602,0.602,1.204,0.86,1.978,0.86c0.86,0,1.376-0.258,1.978-0.86c0.602-0.602,0.86-1.118,0.86-1.978
			S182.937,71.001,182.335,70.399z"/>
	</g>
</g>
<g>
	<g>
		<path d="M201.859,158.9l-27.609-27.609c-1.118-1.118-2.838-1.118-3.956,0c-1.118,1.118-1.118,2.838,0,3.956l27.609,27.609
			c0.516,0.602,1.118,0.86,1.978,0.86c0.602,0,1.376-0.258,1.978-0.86C202.977,161.738,202.977,160.018,201.859,158.9z"/>
	</g>
</g>
<g>
	<g>
		<path d="M226.886,214.46l-80.588-80.588c-1.118-1.118-2.839-1.118-3.956,0c-1.118,1.118-1.118,2.838,0,3.956l80.588,80.588
			c0.602,0.602,1.118,0.86,1.978,0.86c0.602,0,1.376-0.258,1.978-0.86C228.005,217.298,228.005,215.579,226.886,214.46z"/>
	</g>
</g>
<g>
</g>
<g>
</g>
<g>
</g>
<g>
</g>
<g>
</g>
<g>
</g>
<g>
</g>
<g>
</g>
<g>
</g>
<g>
</g>
<g>
</g>
<g>
</g>
<g>
</g>
<g>
</g>
<g>
</g>
</svg>
