<?xml version="1.0" encoding="iso-8859-1"?>
<!-- Generator: Adobe Illustrator 19.0.0, SVG Export Plug-In . SVG Version: 6.00 Build 0)  -->
<svg version="1.1" id="Layer_1" xmlns="http://www.w3.org/2000/svg" xmlns:xlink="http://www.w3.org/1999/xlink" x="0px" y="0px"
	 viewBox="0 0 508 508" style="enable-background:new 0 0 508 508;" xml:space="preserve">
<path style="fill:#ACD9EA;" d="M464.4,423.8c0,1.2,3.2,2,2,2H10H6c0,12,8,22.8,20.4,22.8l452,4c12,0,23.6-10.8,23.6-22.8l4-351.6
	c0-12-11.6-20.4-23.6-20.4h-452c-12,0-24.4,8-24.4,20v344h456.4C467.6,421.8,464.4,422.6,464.4,423.8z"/>
<g>
	<path style="fill:#FFC52F;" d="M110,177.8v192.4c0,4,0,11.6-4,11.6h-4c-4,0-8-7.2-8-11.6V173.4v0.4"/>
	<path style="fill:#FFC52F;" d="M94,137.8v-24.4c0-4,4-3.6,8-3.6h4c4,0,4-0.4,4,3.6v16.4"/>
	<path style="fill:#FFC52F;" d="M170,277.8V173.4v-60c0-4,4-3.6,8-3.6h4c4,0,4-0.4,4,3.6v60v96.4"/>
	<path style="fill:#FFC52F;" d="M186,313.8v56.4c0,4,0,11.6-4,11.6h-4c-4,0-8-7.2-8-11.6v-56.4"/>
	<path style="fill:#FFC52F;" d="M262,261.8v108.4c0,4,0,11.6-4,11.6h-4c-4,0-8-7.2-8-11.6V261.8"/>
	<path style="fill:#FFC52F;" d="M246,225.8v-52.4v-60c0-4,4-3.6,8-3.6h4c4,0,4-0.4,4,3.6v60v44.4"/>
	<path style="fill:#FFC52F;" d="M322,325.8V173.4v-60c0-4,4-3.6,8-3.6h4c4,0,4-0.4,4,3.6v60v144.4"/>
	<path style="fill:#FFC52F;" d="M338,361.8v8.4c0,4,0,11.6-4,11.6h-4c-4,0-8-7.2-8-11.6v-8.4"/>
	<path style="fill:#FFC52F;" d="M414,197.8v172.4c0,4,0,11.6-4,11.6h-4c-4,0-8-7.2-8-11.6V197.8"/>
	<path style="fill:#FFC52F;" d="M398,161.8v-48.4c0-4,4-3.6,8-3.6h4c4,0,4-0.4,4,3.6v40.4"/>
</g>
<g>
	<circle style="fill:#DF5C4E;" cx="104" cy="154.2" r="20"/>
	<circle style="fill:#DF5C4E;" cx="182" cy="294.2" r="20"/>
	<circle style="fill:#DF5C4E;" cx="258" cy="241.8" r="20"/>
	<circle style="fill:#DF5C4E;" cx="334" cy="341.8" r="20"/>
	<path style="fill:#DF5C4E;" d="M430,177.8c0,11.2-8.8,20-20,20c-2.8,0-5.6-0.4-8-1.6c-7.2-3.2-12.4-10-12.4-18.4
		c0-11.2,9.2-20,20-20C421.2,157.8,430,167,430,177.8z"/>
</g>
<path d="M476,455.8H28c-15.2,0-28-13.2-28-28.8V79c0-15.2,12.4-26.8,28-26.8h452c15.6,0,28,12,28,26.8v346
	C508,440.2,492,455.8,476,455.8z M28,59.8c-11.2,0-20,8-20,18.8v348c0,11.2,9.2,20.8,20,20.8h448c11.2,0,24-12.4,24-23.2v-346
	c0-10.8-8.4-18.8-20-18.8H28V59.8z"/>
<path d="M106,383.8h-4c-6.4,0-10-6.8-10-13.6V173.4c0-2.4,1.6-4,4-4s4,1.6,4,4v196.8c0,3.2,1.2,5.6,2,5.6h4c0.8,0,2-2.4,2-5.6V173.8
	c0-2.4,1.6-4,4-4s4,1.6,4,4v196.4C116,377,112.4,383.8,106,383.8z"/>
<path d="M112,137.8c-2.4,0-4-1.6-4-4v-20.4c0-1.2,0-1.6-0.4-1.6c0,0-0.4,0-1.6,0h-4c-1.2,0-1.6,0.4-2,0.4c0,0,0,0.4,0,1.6v20.4
	c0,2.4-1.6,4-4,4s-4-1.6-4-4v-20.4c0-6.4,3.6-9.6,10-9.6h4c6.4,0,10,3.6,10,9.6v20.4C116,136.2,114.4,137.8,112,137.8z"/>
<path d="M104,178.2c-13.2,0-24-10.8-24-24s10.8-24,24-24s24,10.8,24,24S117.2,178.2,104,178.2z M104,137.8c-8.8,0-16,7.2-16,16
	s7.2,16,16,16s16-7.2,16-16S112.8,137.8,104,137.8z"/>
<path d="M188,277.8c-2.4,0-4-1.6-4-4V113.4c0-1.2,0-1.6-0.4-1.6c0,0-0.4,0-1.6,0h-4c-1.2,0-1.6,0.4-2,0.4c0,0,0,0.4,0,1.6v160
	c0,2.4-1.6,4-4,4s-4-1.6-4-4V113.4c0-6.4,3.6-9.6,10-9.6h4c6.4,0,10,3.6,10,9.6v160.4C192,276.2,190.4,277.8,188,277.8z"/>
<path d="M182,383.8h-4c-6.4,0-10-6.8-10-13.6v-56.4c0-2.4,1.6-4,4-4s4,1.6,4,4v56.4c0,3.2,1.2,5.6,2,5.6h4c0.8,0,2-2.4,2-5.6v-56.4
	c0-2.4,1.6-4,4-4s4,1.6,4,4v56.4C192,377,188.4,383.8,182,383.8z"/>
<path d="M180,318.6c-13.2,0-24-10.8-24-24s10.8-24,24-24s24,10.8,24,24S193.2,318.6,180,318.6z M180,278.2c-8.8,0-16,7.2-16,16
	s7.2,16,16,16s16-7.2,16-16S188.8,278.2,180,278.2z"/>
<path d="M258,383.8h-4c-6.4,0-10-6.8-10-13.6V261.8c0-2.4,1.6-4,4-4s4,1.6,4,4v108.4c0,3.2,1.2,5.6,2,5.6h4c0.8,0,2-2.4,2-5.6V261.8
	c0-2.4,1.6-4,4-4s4,1.6,4,4v108.4C268,377,264.4,383.8,258,383.8z"/>
<path d="M264,225.8c-2.4,0-4-1.6-4-4V113.4c0-1.2,0-1.6-0.4-1.6c0,0-0.4,0-1.6,0h-4c-1.2,0-1.6,0.4-2,0.4c0,0,0,0.4,0,1.6v108
	c0,2.4-1.6,4-4,4s-4-1.6-4-4V113.4c0-6.4,3.6-9.6,10-9.6h4c6.4,0,10,3.6,10,9.6v108.4C268,224.2,266.4,225.8,264,225.8z"/>
<path d="M256,266.2c-13.2,0-24-10.8-24-24s10.8-24,24-24s24,10.8,24,24S269.2,266.2,256,266.2z M256,225.8c-8.8,0-16,7.2-16,16
	s7.2,16,16,16s16-7.2,16-16S264.8,225.8,256,225.8z"/>
<path d="M340,325.8c-2.4,0-4-1.6-4-4V113.4c0-1.2,0-1.6-0.4-1.6c0,0-0.4,0-1.6,0h-4c-1.2,0-1.6,0.4-2,0.4c0,0,0,0.4,0,1.6v208
	c0,2.4-1.6,4-4,4s-4-1.6-4-4V113.4c0-6.4,3.6-9.6,10-9.6h4c6.4,0,10,3.6,10,9.6v208.4C344,324.2,342.4,325.8,340,325.8z"/>
<path d="M334,383.8h-4c-6.4,0-10-6.8-10-13.6v-8.4c0-2.4,1.6-4,4-4s4,1.6,4,4v8.4c0,3.2,1.2,5.6,2,5.6h4c0.8,0,2-2.4,2-5.6v-8.4
	c0-2.4,1.6-4,4-4s4,1.6,4,4v8.4C344,377,340.4,383.8,334,383.8z"/>
<path d="M332,365.8c-13.2,0-24-10.8-24-24s10.8-24,24-24s24,10.8,24,24S345.2,365.8,332,365.8z M332,325.8c-8.8,0-16,7.2-16,16
	s7.2,16,16,16s16-7.2,16-16S340.8,325.8,332,325.8z"/>
<path d="M410,383.8h-4c-6.4,0-10-6.8-10-13.6V197.8c0-2.4,1.6-4,4-4s4,1.6,4,4v172.4c0,3.2,1.2,5.6,2,5.6h4c0.8,0,2-2.4,2-5.6V197.8
	c0-2.4,1.6-4,4-4s4,1.6,4,4v172.4C420,377,416.4,383.8,410,383.8z"/>
<path d="M416,161.8c-2.4,0-4-1.6-4-4v-44.4c0-1.2,0-1.6-0.4-1.6c0,0-0.4,0-1.6,0h-4c-1.2,0-1.6,0.4-2,0.4c0,0,0,0.4,0,1.6v44
	c0,2.4-1.6,4-4,4s-4-1.6-4-4v-44.4c0-6.4,3.6-9.6,10-9.6h4c6.4,0,10,3.6,10,9.6v44.4C420,160.2,418.4,161.8,416,161.8z"/>
<path d="M408,202.2c-3.2,0-6.4-0.8-9.2-2c-8.8-3.6-14.8-12.4-14.8-22c0-13.2,10.8-24,24-24s24,10.8,24,24S421.2,202.2,408,202.2z
	 M408,161.8c-8.8,0-16,7.2-16,16c0,6.4,4,12.4,10,14.8c2,0.8,4,1.2,6.4,1.2c8.8,0,16-7.2,16-16C424,169,416.8,161.8,408,161.8z"/>
<path d="M462,427.8H6c-2.4,0-4-1.6-4-4s1.6-4,4-4h456c2.4,0,4,1.6,4,4S464.4,427.8,462,427.8z"/>
<g>
</g>
<g>
</g>
<g>
</g>
<g>
</g>
<g>
</g>
<g>
</g>
<g>
</g>
<g>
</g>
<g>
</g>
<g>
</g>
<g>
</g>
<g>
</g>
<g>
</g>
<g>
</g>
<g>
</g>
</svg>
