<?xml version="1.0" encoding="iso-8859-1"?>
<!-- Generator: Adobe Illustrator 19.0.0, SVG Export Plug-In . SVG Version: 6.00 Build 0)  -->
<svg version="1.1" id="Layer_1" xmlns="http://www.w3.org/2000/svg" xmlns:xlink="http://www.w3.org/1999/xlink" x="0px" y="0px"
	 viewBox="0 0 357.961 357.961" style="enable-background:new 0 0 357.961 357.961;" xml:space="preserve">
<g>
	<g>
		<path d="M338.524,38.187H19.696c-10.751,0-19.438,8.773-19.438,19.438V295.95C0.086,296.294,0,296.81,0,297.24
			c0,0.516,0.086,0.946,0.258,1.29v1.806c0,10.751,8.773,19.438,19.437,19.438h318.828c10.751,0,19.438-8.773,19.438-19.438V57.625
			C357.961,46.873,349.189,38.187,338.524,38.187z M352.027,299.992c0,7.569-6.193,13.847-13.847,13.847H19.351
			c-7.569,0-13.847-6.193-13.847-13.847h321.323c1.72,0,2.838-1.118,2.838-2.838c0-1.72-1.118-2.838-2.838-2.838H5.505V57.28
			c0-7.569,6.193-13.847,13.847-13.847H338.18c7.569,0,13.847,6.193,13.847,13.847V299.992z"/>
	</g>
</g>
<g>
	<g>
		<path d="M81.965,99.51V81.276c0-2.494-1.118-6.794-7.311-6.794h-0.602c-5.677,0-9.289,2.838-9.289,6.794v18.062
			c-5.075,2.924-8.429,8.429-8.429,14.621c0,6.106,3.268,11.439,8.171,14.449v132.107c0,4.816,5.075,8.429,9.289,8.429h0.602
			c4.214,0,7.311-3.698,7.311-8.429V128.581c5.075-2.924,8.429-8.429,8.429-14.621C90.135,107.852,86.867,102.52,81.965,99.51z
			 M74.138,80.158h0.602c1.118,0,1.376,0.258,1.376,0.258s0,0.258,0,0.86v16.083c-0.946-0.172-1.892-0.258-2.838-0.258
			c-0.946,0-1.892,0.086-2.838,0.258L70.44,81.276C70.44,80.674,72.16,80.158,74.138,80.158z M74.31,263.439h-0.602
			c-1.72,0-3.698-1.72-3.698-2.838V130.644c1.032,0.172,2.064,0.258,3.096,0.258c0.946,0,1.892-0.086,2.838-0.258v129.957h0.087
			C76.03,260.859,76.03,263.439,74.31,263.439z M73.278,125.226c-6.193,0-11.267-5.074-11.267-11.267
			c0-6.193,5.075-11.267,11.267-11.267s11.267,5.074,11.267,11.267C84.545,120.152,79.471,125.226,73.278,125.226z"/>
	</g>
</g>
<g>
	<g>
		<path d="M135.289,192.913V81.276c0-1.72-0.602-6.794-7.569-6.794h-0.602c-5.333,0-8.773,2.494-8.773,6.794v111.637
			c-5.075,2.924-8.429,8.429-8.429,14.621c0,6.192,3.44,11.697,8.429,14.621v38.359c0,4.472,4.214,8.429,8.773,8.429h0.602
			c4.214,0,7.569-3.698,7.569-8.429v-38.359c5.075-2.924,8.429-8.429,8.429-14.621C143.717,201.342,140.278,195.923,135.289,192.913
			z M124.022,81.276c0-0.86,2.236-1.118,3.096-1.118h0.602c1.978,0,1.978,0.602,1.978,1.118v109.659
			c-0.946-0.172-1.892-0.258-2.838-0.258c-0.946,0-1.892,0.086-2.838,0.258V81.276z M129.612,260.601
			c0,1.376-0.602,2.838-1.978,2.838h-0.602c-1.376,0-3.096-1.376-3.096-2.838V224.22c0.946,0.172,1.892,0.258,2.838,0.258
			c0.946,0,1.892-0.086,2.838-0.258V260.601z M126.774,218.802c-6.192,0-11.267-5.074-11.267-11.267
			c0-6.193,5.075-11.267,11.267-11.267c6.193,0,11.267,5.074,11.267,11.267C138.042,213.727,132.967,218.802,126.774,218.802z"/>
	</g>
</g>
<g>
	<g>
		<path d="M188.786,156.274V81.276c0-3.355-2.236-6.794-8.171-6.794h-0.602c-5.935,0-8.171,3.354-8.171,6.794v74.998
			c-5.075,2.924-8.429,8.429-8.429,14.621c0,6.192,3.44,11.697,8.429,14.621v74.998c0,4.472,3.698,8.429,8.171,8.429h0.602
			c4.472,0,8.171-3.956,8.171-8.429v-74.998c5.075-2.924,8.429-8.429,8.429-14.621C197.3,164.703,193.86,159.198,188.786,156.274z
			 M177.433,81.276h0.086c0-0.258,0-1.118,2.494-1.118h0.602c2.494,0,2.494,0.86,2.494,1.118v73.02
			c-0.946-0.172-1.892-0.258-2.838-0.258c-0.946,0-1.892,0.086-2.838,0.258V81.276z M183.281,260.602h-0.086v-0.001
			c0,1.376-1.118,2.838-2.494,2.838h-0.602c-1.118,0-2.494-1.376-2.494-2.838v-73.019c0.946,0.172,1.892,0.258,2.838,0.258
			s1.892-0.086,2.838-0.258V260.602z M180.357,182.162c-6.192,0-11.267-5.074-11.267-11.267c0-6.192,5.075-11.267,11.267-11.267
			c6.193,0,11.267,5.074,11.267,11.267C191.624,177.088,186.549,182.162,180.357,182.162z"/>
	</g>
</g>
<g>
	<g>
		<path d="M242.368,225.94V81.276c0-4.214-3.354-6.794-8.773-6.794h-0.602c-7.311,0-7.913,5.074-7.913,6.794v144.836
			c-4.902,3.01-8.171,8.343-8.171,14.449s3.268,11.439,8.171,14.449v5.591c0,4.817,3.698,8.429,7.913,8.429h0.602
			c4.472,0,8.773-3.956,8.773-8.429v-5.419c5.075-2.924,8.429-8.429,8.429-14.621C250.883,234.283,247.442,228.864,242.368,225.94z
			 M230.843,81.276c0-0.602,0-1.118,2.236-1.118h0.602c0,0,3.096,0,3.096,1.118v142.6c-0.946-0.172-1.892-0.258-2.838-0.258
			c-1.032,0-2.064,0.086-3.096,0.258V81.276z M236.777,260.601c0,1.376-1.72,2.838-3.096,2.838h-0.602
			c-1.376,0-2.236-1.376-2.236-2.838v-3.44c1.032,0.172,2.064,0.258,3.096,0.258c0.946,0,1.892-0.086,2.838-0.258V260.601z
			 M233.939,252.086c-6.193,0-11.267-5.074-11.267-11.267c0-6.193,5.075-11.267,11.267-11.267s11.267,5.074,11.267,11.267
			C245.206,247.012,240.132,252.086,233.939,252.086z"/>
	</g>
</g>
<g>
	<g>
		<path d="M304.293,126.172c0.086-6.279-3.354-11.784-8.343-14.708c0-0.086,0-0.172,0-0.344V81.276c0-3.956-3.698-6.794-9.03-6.794
			h-0.602c-6.45,0-7.311,4.816-7.311,6.794v29.845c0,0.086,0,0.172,0,0.344c-5.075,2.924-8.515,8.429-8.515,14.621
			c0,6.107,3.526,11.783,8.773,14.707c-0.172,0.43-0.344,0.86-0.344,1.376v118.432c0,4.817,3.096,8.429,7.311,8.429h0.602
			c4.214,0,9.03-3.698,9.03-8.429V142.169c0-0.43-0.086-0.86-0.258-1.204C300.767,138.128,304.293,132.623,304.293,126.172z
			 M284.684,80.416c0,0,0.602-0.258,1.72-0.258h0.602c1.978,0,3.354,0.602,3.354,1.118v28.124c-0.946-0.172-1.892-0.258-2.838-0.258
			c-0.946,0-1.892,0.086-2.838,0.258l-0.001-28.125C284.684,80.674,284.684,80.416,284.684,80.416z M286.919,263.439h-0.602
			c-1.72,0-1.72-2.838-1.72-2.838v-117.83c0.946,0.172,1.892,0.258,2.838,0.258s1.892-0.086,2.838-0.258l0.001,117.83
			C290.274,261.719,288.295,263.439,286.919,263.439z M287.178,137.697c-1.376,0-2.838-0.258-4.214-0.86
			c-3.956-1.978-6.794-5.935-6.794-10.407c0-6.193,5.075-11.267,11.267-11.267s11.009,5.074,11.009,11.267
			S293.37,137.697,287.178,137.697z"/>
	</g>
</g>
<g>
</g>
<g>
</g>
<g>
</g>
<g>
</g>
<g>
</g>
<g>
</g>
<g>
</g>
<g>
</g>
<g>
</g>
<g>
</g>
<g>
</g>
<g>
</g>
<g>
</g>
<g>
</g>
<g>
</g>
</svg>
