<?xml version="1.0" encoding="utf-8"?>
<!-- Generator: Adobe Illustrator 22.1.0, SVG Export Plug-In . SVG Version: 6.00 Build 0)  -->
<svg version="1.1" id="Layer_1" xmlns="http://www.w3.org/2000/svg" xmlns:xlink="http://www.w3.org/1999/xlink" x="0px" y="0px"
	 viewBox="0 0 101 22.5" style="enable-background:new 0 0 101 22.5;" xml:space="preserve">
<style type="text/css">
	.st0{fill:#323232;}
</style>
<path class="st0" d="M5.6,11.3h2c3.3,0,3.6-2.1,3.6-3.1c0-2-1.4-2.9-3.6-2.9h-2V11.3z M0.3,0.4h6.9c3.8,0,5.3,0.5,6.7,1.6
	c1.8,1.4,2.7,3.7,2.7,5.9c0,2.5-1.3,6.2-5.4,6.8l5.9,7.4h-6.3l-5-7H5.6v7H0.3V0.4z"/>
<polygon class="st0" points="17.7,0.4 23.3,0.4 23.3,8.5 30.4,8.5 30.4,0.4 36,0.4 36,22.1 30.4,22.1 30.4,13.4 23.3,13.4 
	23.3,22.1 17.7,22.1 "/>
<path class="st0" d="M45.3,14.5h4.6l-2.2-7.4l0,0h-0.1L45.3,14.5z M43.7,18.9L42.6,22h-6l8.7-21.7h4.4L58.3,22h-6l-1.1-3.1H43.7z"/>
<path class="st0" d="M78.1,14c-1.3,5.1-5.7,8.5-11,8.5c-6.8,0-11.5-5.4-11.5-11.3C55.6,5.7,59.9,0,67,0c6.8,0,10.5,5.3,11.1,8.7
	h-5.8C71.6,7,70,4.9,67,4.9c-3.7,0-5.8,3.3-5.8,6.3c0,3.3,2.2,6.5,5.8,6.5c3.5,0,4.9-2.9,5.2-3.7C72.2,14,78.1,14,78.1,14z"/>
<path class="st0" d="M100.9,14c-1.3,5.1-5.7,8.5-11,8.5c-6.8,0-11.5-5.4-11.5-11.3C78.5,5.7,82.8,0,89.9,0c6.8,0,10.5,5.3,11.1,8.7
	h-5.8c-0.6-1.6-2.3-3.8-5.3-3.8c-3.7,0-5.8,3.3-5.8,6.3c0,3.3,2.2,6.5,5.9,6.5c3.5,0,4.9-2.9,5.2-3.7C95.2,14,100.9,14,100.9,14z"/>
</svg>
