<?xml version="1.0" encoding="iso-8859-1"?>
<!-- Generator: Adobe Illustrator 19.0.0, SVG Export Plug-In . SVG Version: 6.00 Build 0)  -->
<svg version="1.1" id="Layer_1" xmlns="http://www.w3.org/2000/svg" xmlns:xlink="http://www.w3.org/1999/xlink" x="0px" y="0px"
	 viewBox="0 0 512.122 512.122" style="enable-background:new 0 0 512.122 512.122;" xml:space="preserve">
<g>
	<g>
		<path d="M510.047,66.762C432.912,23.19,345.035,0.122,256.061,0.122S79.21,23.19,2.075,66.762C0.854,67.494,0,68.837,0,70.301
			c1.465,191.252,101.302,364.442,254.23,441.333c0.61,0.244,1.22,0.366,1.831,0.366c0.61,0,1.22-0.122,1.831-0.488
			C410.82,434.621,510.657,261.309,512.122,70.057C512,68.837,511.268,67.494,510.047,66.762z M256.061,503.579
			C107.404,427.908,10.253,259.112,8.055,72.498C83.482,30.39,169.284,8.056,256.061,8.056s172.457,22.213,248.006,64.442
			C501.747,259.112,404.718,427.908,256.061,503.579z"/>
	</g>
</g>
<g>
	<g>
		<path d="M448.167,102.279c-59.683-27.584-125.955-42.23-191.74-42.23c-0.121,0.122-0.244,0-0.366,0s-0.244,0-0.366,0
			c-65.785,0.122-132.18,14.646-191.74,42.23c-1.465,0.732-2.441,2.319-2.319,3.905c5.736,71.888,27.217,141.212,62.001,200.406
			c33.32,56.754,78.356,103.743,130.349,135.964c0.61,0.366,1.342,0.61,2.075,0.61c0.732,0,1.464-0.244,2.075-0.61
			c51.993-32.221,97.03-79.21,130.349-135.964c34.784-59.317,56.265-128.64,62.001-200.406
			C450.608,104.475,449.754,102.889,448.167,102.279z M381.529,302.807c-31.367,53.335-73.23,98.006-121.562,129.373V180.146
			c0-2.197-1.831-4.027-4.027-4.027c-2.197,0-4.027,1.831-4.027,4.027v252.033c-48.332-31.367-90.195-76.037-121.562-129.373
			c-33.808-57.486-54.8-124.613-60.781-194.182C126.445,82.75,189.3,68.836,251.912,68.226v47.966c0,2.197,1.831,4.027,4.027,4.027
			c2.197,0,4.027-1.831,4.027-4.027V68.227c62.612,0.61,125.467,14.524,182.343,40.399
			C436.329,178.194,415.336,245.321,381.529,302.807z"/>
	</g>
</g>
<g>
</g>
<g>
</g>
<g>
</g>
<g>
</g>
<g>
</g>
<g>
</g>
<g>
</g>
<g>
</g>
<g>
</g>
<g>
</g>
<g>
</g>
<g>
</g>
<g>
</g>
<g>
</g>
<g>
</g>
</svg>
